<svg id="Layer_1" data-name="Layer 1" xmlns="http://www.w3.org/2000/svg" xmlns:xlink="http://www.w3.org/1999/xlink" viewBox="0 0 365.81 304.39" width="406" height="306" class="illustration styles_illustrationTablet__1DWOa"><defs><linearGradient id="linear-gradient" x1="272.45" y1="298.28" x2="130.13" y2="286.84" gradientUnits="userSpaceOnUse"><stop offset="0.01"></stop><stop offset="0.13" stop-opacity="0.69"></stop><stop offset="1" stop-opacity="0"></stop></linearGradient><linearGradient id="linear-gradient-2" x1="222.22" y1="138.32" x2="243.15" y2="133.77" xlink:href="#linear-gradient"></linearGradient><linearGradient id="linear-gradient-3" x1="152.04" y1="133.89" x2="218.76" y2="130.19" xlink:href="#linear-gradient"></linearGradient><linearGradient id="linear-gradient-4" x1="164.79" y1="128.07" x2="241.34" y2="128.92" xlink:href="#linear-gradient"></linearGradient><linearGradient id="linear-gradient-5" x1="202.11" y1="155.74" x2="195.61" y2="171.91" xlink:href="#linear-gradient"></linearGradient></defs><title _mstHash="296254" _mstTextHash="5005">7</title><path d="M413.31,282.68a41.25,41.25,0,0,1-6.87,9.76c-13.08,13.72-34.2,16.27-53,13.68s-36.83-9.4-55.69-11.22c-30-2.89-59.53,7-88,16.7s-58,19.69-88,17c-28.25-2.52-57.17-19.43-65.89-45.94a49.51,49.51,0,0,1-1.37-5c-8.93-40.22,29-77.87,26.41-119-.72-11.49-4.62-22.54-6.25-33.94-5.44-38.09,18-78.4,53.73-92.56,62.7-24.83,130.52,21,195.84,8.75,65.12-12.17,73.64,18.52,67.47,81.77a160.59,160.59,0,0,0,6.8,64c5.68,17.82,14.5,34.65,18.51,52.92C420.15,253.92,419.8,269.91,413.31,282.68Z" transform="translate(-53.12 -24.67)" fill="#2e8555" opacity="0.18" style="isolation: isolate;"></path><path d="M413.31,282.68a41.25,41.25,0,0,1-6.87,9.76c-13.08,13.72-34.2,16.27-53,13.68s-36.83-9.4-55.69-11.22c-30-2.89-59.53,7-88,16.7s-58,19.69-88,17c-28.25-2.52-57.17-19.43-65.89-45.94Z" transform="translate(-53.12 -24.67)" fill="#2e8555"></path><path d="M110.64,295.32c-2.89-2.62-.79-6.91,3-8.73s8.63-1.88,13.15-1.87c34.39,0,70-1.9,104.2.19-10.88,9.79-34.18,9.54-49.19,10.19C158.13,296.13,134.35,296.2,110.64,295.32Z" transform="translate(-53.12 -24.67)" fill="url(#linear-gradient)"></path><path d="M188.36,140.81q-.69-11.53-.47-23.11c.11-5.58.55-11.63,4.21-15.85a22.28,22.28,0,0,1,5.77-4.41,100.43,100.43,0,0,1,9.95-5.12c5.44,1.19,11.58-2,16.5.55,2.39,1.26,4,3.6,5.37,5.93,6.88,11.79,9.65,25.63,10,39.28s-1.53,27.25-3.43,40.77c-12.15,2.54-24.73.35-36.95-1.85a8.45,8.45,0,0,1-3.1-1c-2.53-1.59-2.68-5.13-2.78-8.11C193.2,159.81,188.84,148.91,188.36,140.81Z" transform="translate(-53.12 -24.67)" fill="#2e8555"></path><path d="M226.35,79.75c0,1.68-.07,3.5-1.15,4.79a5.23,5.23,0,0,1-3.29,1.64,21.34,21.34,0,0,1-3.75,0,.5.5,0,0,0-.62.56,35.87,35.87,0,0,0,0,7.47,2.18,2.18,0,0,1-.1,1.19,1.93,1.93,0,0,1-1.28.84,9.3,9.3,0,0,1-2.86.5c-2.08,0-4-1.05-5.82-2.06a58.87,58.87,0,0,0-.57-10.78c-.66-4.61-1.88-9.23-1.37-13.86a8.87,8.87,0,0,1,1.9-5c1.66-1.88,4.35-2.48,6.86-2.48a17.45,17.45,0,0,1,9.44,2.59c1,.7,1.15,1.6,1.39,2.79.36,1.82.65,3.65.85,5.49A60.93,60.93,0,0,1,226.35,79.75Z" transform="translate(-53.12 -24.67)" fill="#f38a6b"></path><path d="M221.54,66.29c-2.36.54-4.95-.09-7.19.83-3.12,1.27-4.45,5.32-3.41,8.52-.9.33-1.06-1.3-1.76-2s-2.27.23-2.38,1.36a6.8,6.8,0,0,0,1,3.21,9.57,9.57,0,0,1,.42,6.31c-.14.49-.5,1.07-1,.94a1,1,0,0,1-.44-.33c-1.08-1.39-.54-3.66-1.78-4.91a9.45,9.45,0,0,0-1.21-.86c-1.9-1.38-2.33-4.09-1.89-6.4a4.43,4.43,0,0,0,.1-2.28,7.41,7.41,0,0,0-.91-1.46A3.5,3.5,0,0,1,204.72,64a4.37,4.37,0,0,1,7.18-3.75,7.19,7.19,0,0,1,2.69-2.88,2.62,2.62,0,0,1,3.4,1c2.35-2.13,5.8-3.76,7.75-.28S225.22,65.45,221.54,66.29Z" transform="translate(-53.12 -24.67)" fill="#1e3964"></path><path d="M213.15,76.55a6.54,6.54,0,0,0,2.31,1,7.33,7.33,0,0,0,2.5-.26,35.86,35.86,0,0,1,7.93-.78,1.08,1.08,0,0,1,.64.14.94.94,0,0,1,.32.46,8.16,8.16,0,0,1-.29,7.27,2,2,0,0,1-.69.81,2.15,2.15,0,0,1-.91.23q-3.81.42-7.64.58a3.49,3.49,0,0,1-2.17-.37c-.32-.21-.55-.51-.86-.73a4.9,4.9,0,0,0-1.41-.59,9.93,9.93,0,0,1-5.72-4.47A25.94,25.94,0,0,0,214,83.19a.65.65,0,0,0,.56,0,.66.66,0,0,0,.22-.52l.36-3.17a1.25,1.25,0,0,0,0-.58,1.21,1.21,0,0,0-.53-.52c-1.26-.78-3.94-1.81-4.59-3.16C210.76,74.68,212.45,76.15,213.15,76.55Z" transform="translate(-53.12 -24.67)" fill="#f6f4f6"></path><polygon points="143.1 151.36 147.32 259.27 158.03 259.27 171.88 153.5 143.1 151.36" fill="#080608"></polygon><polygon points="159.14 152.76 166.43 259.27 177.13 259.27 184.43 153.5 159.14 152.76" fill="#080608"></polygon><path d="M199.65,290a59.9,59.9,0,0,0,10.8.59,15.41,15.41,0,0,0,4.74-.51,7.16,7.16,0,0,1,2.61-.65,2.12,2.12,0,0,0-.68-1.72,12.21,12.21,0,0,0-7.37-3.75c-2.3-.38-5.76-.8-8-.05S199.59,288,199.65,290Z" transform="translate(-53.12 -24.67)" fill="#080608"></path><path d="M219.37,289.19a60,60,0,0,0,10.8.59,15.44,15.44,0,0,0,4.75-.51,7.16,7.16,0,0,1,2.61-.65,2.15,2.15,0,0,0-.68-1.72,12.24,12.24,0,0,0-7.37-3.75c-2.31-.38-5.77-.8-8,0S219.31,287.17,219.37,289.19Z" transform="translate(-53.12 -24.67)" fill="#080608"></path><path d="M195.94,148.58l10.15,8.11a48.89,48.89,0,0,1-3,6.74,4.08,4.08,0,0,1-1.4,1.72c-1.25.73-2.83.06-4.11-.6l-12-6.27a25.74,25.74,0,0,1-5.67-3.61c-3.39-3.12-4.88-7.89-5-12.5s1.05-9.14,2.19-13.6l3.13-12.33c2-7.86,4.48-16.42,11.2-21A36.29,36.29,0,0,1,198,92.05a4.53,4.53,0,0,0,1.83-1.15,5.29,5.29,0,0,0,.82-2.09c.63-2.49,2.63-4.74,5.14-4.18-.2.83.77,1.44,1.58,1.74q3,1.14,6.18,2a2.81,2.81,0,0,1,1.17.51,2.85,2.85,0,0,1,.52,2.56l-1,7.76c-.14,1.14,2.62,1.77,3.37.89a4.7,4.7,0,0,0,.65-3.31l-.6-11c4.33.09,7.45,5.68,5.24,9.4,3-.67,6.11.9,8.14,3.19s3.15,5.22,4.25,8.07c1.56,4.07,3.12,8.14,4.32,12.33,4.63,16.07,3.86,33.14,2.65,49.82-.31,4.25-1,9.15-4.71,11.32a13,13,0,0,1-5.73,1.33,193.21,193.21,0,0,1-41.21-1.48c.2-5.47.78-14.22,1-19.69,2.72.79,4.08,7,6.82,7.66,2.47.65,5.12-.71,6.73-2.69a20.25,20.25,0,0,0,3.19-6.92,2.63,2.63,0,0,0-1.24-3.8C203.67,152.14,199.36,150.79,195.94,148.58Z" transform="translate(-53.12 -24.67)" fill="#2e8555"></path><path d="M237.14,132.7a115.94,115.94,0,0,1-3.08-18.14,71.29,71.29,0,0,1,7.47,40.76c0-1.17-2.32-2.34-2.5-3.75-.23-1.83.72-4.25.64-6.22C239.47,141,238.2,136.86,237.14,132.7Z" transform="translate(-53.12 -24.67)" fill="url(#linear-gradient-2)"></path><path d="M205.51,167.34a.85.85,0,0,0,.57.13.74.74,0,0,0,.36-.27,16.22,16.22,0,0,0,3.88-7.41,7.35,7.35,0,0,1-3.9-1.77c-.21-.18-.45-.39-.71-.33s-.38.29-.49.51l-1.52,3a12.36,12.36,0,0,0-1.51,3C202,165.66,204.37,166.75,205.51,167.34Z" transform="translate(-53.12 -24.67)" fill="#f38a6b"></path><path d="M200.05,150.35l-4.75-4c-1.45-1.22-3-2.55-3.5-4.37s0-3.69.6-5.47l3.66-11.71-5.52-4.49L195,121a2,2,0,0,0,1.27-.09,1.88,1.88,0,0,0,.75-1.29,20.72,20.72,0,0,0-1.38-13.86l3.19,2.61a1.49,1.49,0,0,0,.8.42c.51,0,.89-.45,1.17-.87l3.94-5.89a71.53,71.53,0,0,0-4.11,15,63.45,63.45,0,0,1,16.29.06c-3.27.7-6.52,1.54-9.72,2.51a8,8,0,0,0-2.95,1.38,6.42,6.42,0,0,0-1.85,4.74c-.06,1.74.2,3.5,0,5.23a64.67,64.67,0,0,1,15,.64l-8,1.14a9.28,9.28,0,0,0-4.12,1.26c-2.54,1.77-2.68,5.42-2.56,8.52l19,.11a70.58,70.58,0,0,0-13.41,2.56,9.25,9.25,0,0,0-4.29,2.47,3.84,3.84,0,0,0-.47,4.61,8.22,8.22,0,0,0,1.76,1.5,9,9,0,0,1,3.42,5.93,105.22,105.22,0,0,1-14.9-14.49" transform="translate(-53.12 -24.67)" fill="url(#linear-gradient-3)"></path><path d="M219.67,98.5c-.91,3.86-2.07,8-.45,11.63a69.81,69.81,0,0,1,10.22.46l-8.57,1.33a47.83,47.83,0,0,0,.83,15,68.9,68.9,0,0,1,10.75.3q-4,.75-7.92,1.77a2.08,2.08,0,0,0-1.26.67,2.14,2.14,0,0,0-.15,1.54l1.59,10.09a22.84,22.84,0,0,1,6.44-.4c-.9,1.25-2.82,1-4.14,1.79-1.55.9-1.94,3-1.87,4.76s.41,3.66-.28,5.32a18.35,18.35,0,0,0,6.85.18l-4.48.76a2.24,2.24,0,0,0-1.4.58,2.33,2.33,0,0,0-.39,1.59q0,5.7.18,11.39c-1.87-15.4-3.73-30.83-6.79-46-1.2-5.93-2.58-11.88-2.55-17.92a6.29,6.29,0,0,1,.22-1.94,14,14,0,0,1,1.43-2.41,8.29,8.29,0,0,0,1-4.53c0-1-1-3.31,0-4C221.23,88.68,219.91,97.48,219.67,98.5Z" transform="translate(-53.12 -24.67)" fill="url(#linear-gradient-4)"></path><path d="M238.78,151.81c-.29,1.53-.52,3.06-.69,4.61a6.31,6.31,0,0,0,0,1.84,6.74,6.74,0,0,0,.9,2.08l1.81,3.14c.2.35.45.74.85.81a1,1,0,0,0,.88-.38,3.45,3.45,0,0,0,.61-2.14,22.68,22.68,0,0,0-.39-6.68C242.23,153.1,240.68,152.43,238.78,151.81Z" transform="translate(-53.12 -24.67)" fill="#f38a6b"></path><path d="M191.71,166a7.26,7.26,0,0,0,1.83,2.12l4.3,3.83c.63.56,1.48,1.15,2.23.78a2.39,2.39,0,0,0,.8-.81,8.32,8.32,0,0,1,2.7-2.34c.65-.36,1.45-.75,1.55-1.48s-.68-1.44-1.38-1.86l-1.63-1a1.58,1.58,0,0,0-.71-.29,2,2,0,0,0-.83.19c-2.11.71-4.33-.56-6.19-1.77-.64-.42-2.11-1.82-2.84-1S191.37,165.22,191.71,166Z" transform="translate(-53.12 -24.67)" fill="url(#linear-gradient-5)"></path></svg>